<mxfile host="Electron" agent="Mozilla/5.0 (X11; Linux x86_64) AppleWebKit/537.36 (KHTML, like Gecko) draw.io/27.0.9 Chrome/134.0.6998.205 Electron/35.4.0 Safari/537.36" version="27.0.9" pages="2">
  <diagram name="Page-1" id="XUfBIkXEblLMSKp6OgKS">
    <mxGraphModel dx="895" dy="431" grid="1" gridSize="10" guides="1" tooltips="1" connect="1" arrows="1" fold="1" page="1" pageScale="1" pageWidth="850" pageHeight="1100" math="0" shadow="0">
      <root>
        <mxCell id="0" />
        <mxCell id="1" parent="0" />
        <mxCell id="nIHXjGnGd6invyZL4L8c-57" style="edgeStyle=orthogonalEdgeStyle;rounded=0;orthogonalLoop=1;jettySize=auto;html=1;endArrow=ERoneToMany;endFill=0;startArrow=ERmandOne;startFill=0;exitX=1.001;exitY=0.713;exitDx=0;exitDy=0;exitPerimeter=0;entryX=0;entryY=0.5;entryDx=0;entryDy=0;" parent="1" source="nIHXjGnGd6invyZL4L8c-84" target="nIHXjGnGd6invyZL4L8c-45" edge="1">
          <mxGeometry relative="1" as="geometry">
            <mxPoint x="670" y="550" as="sourcePoint" />
          </mxGeometry>
        </mxCell>
        <mxCell id="nIHXjGnGd6invyZL4L8c-27" value="files" style="shape=table;startSize=30;container=1;collapsible=1;childLayout=tableLayout;fixedRows=1;rowLines=0;fontStyle=1;align=center;resizeLast=1;html=1;whiteSpace=wrap;" parent="1" vertex="1">
          <mxGeometry x="480" y="690" width="182" height="120" as="geometry" />
        </mxCell>
        <mxCell id="nIHXjGnGd6invyZL4L8c-28" value="" style="shape=tableRow;horizontal=0;startSize=0;swimlaneHead=0;swimlaneBody=0;fillColor=none;collapsible=0;dropTarget=0;points=[[0,0.5],[1,0.5]];portConstraint=eastwest;top=0;left=0;right=0;bottom=0;html=1;" parent="nIHXjGnGd6invyZL4L8c-27" vertex="1">
          <mxGeometry y="30" width="182" height="30" as="geometry" />
        </mxCell>
        <mxCell id="nIHXjGnGd6invyZL4L8c-29" value="PK" style="shape=partialRectangle;connectable=0;fillColor=none;top=0;left=0;bottom=0;right=0;fontStyle=1;overflow=hidden;html=1;whiteSpace=wrap;" parent="nIHXjGnGd6invyZL4L8c-28" vertex="1">
          <mxGeometry width="30" height="30" as="geometry">
            <mxRectangle width="30" height="30" as="alternateBounds" />
          </mxGeometry>
        </mxCell>
        <mxCell id="nIHXjGnGd6invyZL4L8c-30" value="id" style="shape=partialRectangle;connectable=0;fillColor=none;top=0;left=0;bottom=0;right=0;align=left;spacingLeft=6;fontStyle=5;overflow=hidden;html=1;whiteSpace=wrap;" parent="nIHXjGnGd6invyZL4L8c-28" vertex="1">
          <mxGeometry x="30" width="152" height="30" as="geometry">
            <mxRectangle width="152" height="30" as="alternateBounds" />
          </mxGeometry>
        </mxCell>
        <mxCell id="nIHXjGnGd6invyZL4L8c-31" value="" style="shape=tableRow;horizontal=0;startSize=0;swimlaneHead=0;swimlaneBody=0;fillColor=none;collapsible=0;dropTarget=0;points=[[0,0.5],[1,0.5]];portConstraint=eastwest;top=0;left=0;right=0;bottom=1;html=1;" parent="nIHXjGnGd6invyZL4L8c-27" vertex="1">
          <mxGeometry y="60" width="182" height="30" as="geometry" />
        </mxCell>
        <mxCell id="nIHXjGnGd6invyZL4L8c-32" value="FK" style="shape=partialRectangle;connectable=0;fillColor=none;top=0;left=0;bottom=0;right=0;fontStyle=1;overflow=hidden;html=1;whiteSpace=wrap;" parent="nIHXjGnGd6invyZL4L8c-31" vertex="1">
          <mxGeometry width="30" height="30" as="geometry">
            <mxRectangle width="30" height="30" as="alternateBounds" />
          </mxGeometry>
        </mxCell>
        <mxCell id="nIHXjGnGd6invyZL4L8c-33" value="document_id" style="shape=partialRectangle;connectable=0;fillColor=none;top=0;left=0;bottom=0;right=0;align=left;spacingLeft=6;fontStyle=5;overflow=hidden;html=1;whiteSpace=wrap;" parent="nIHXjGnGd6invyZL4L8c-31" vertex="1">
          <mxGeometry x="30" width="152" height="30" as="geometry">
            <mxRectangle width="152" height="30" as="alternateBounds" />
          </mxGeometry>
        </mxCell>
        <mxCell id="nIHXjGnGd6invyZL4L8c-87" value="" style="shape=tableRow;horizontal=0;startSize=0;swimlaneHead=0;swimlaneBody=0;fillColor=none;collapsible=0;dropTarget=0;points=[[0,0.5],[1,0.5]];portConstraint=eastwest;top=0;left=0;right=0;bottom=0;html=1;" parent="nIHXjGnGd6invyZL4L8c-27" vertex="1">
          <mxGeometry y="90" width="182" height="30" as="geometry" />
        </mxCell>
        <mxCell id="nIHXjGnGd6invyZL4L8c-88" value="" style="shape=partialRectangle;connectable=0;fillColor=none;top=0;left=0;bottom=0;right=0;editable=1;overflow=hidden;html=1;whiteSpace=wrap;" parent="nIHXjGnGd6invyZL4L8c-87" vertex="1">
          <mxGeometry width="30" height="30" as="geometry">
            <mxRectangle width="30" height="30" as="alternateBounds" />
          </mxGeometry>
        </mxCell>
        <mxCell id="nIHXjGnGd6invyZL4L8c-89" value="file" style="shape=partialRectangle;connectable=0;fillColor=none;top=0;left=0;bottom=0;right=0;align=left;spacingLeft=6;overflow=hidden;html=1;whiteSpace=wrap;" parent="nIHXjGnGd6invyZL4L8c-87" vertex="1">
          <mxGeometry x="30" width="152" height="30" as="geometry">
            <mxRectangle width="152" height="30" as="alternateBounds" />
          </mxGeometry>
        </mxCell>
        <mxCell id="nIHXjGnGd6invyZL4L8c-40" style="edgeStyle=orthogonalEdgeStyle;rounded=0;orthogonalLoop=1;jettySize=auto;html=1;entryX=0.506;entryY=1.02;entryDx=0;entryDy=0;entryPerimeter=0;endArrow=ERmandOne;endFill=0;startArrow=ERoneToMany;startFill=0;" parent="1" source="nIHXjGnGd6invyZL4L8c-27" target="nIHXjGnGd6invyZL4L8c-81" edge="1">
          <mxGeometry relative="1" as="geometry">
            <mxPoint x="570.3600000000001" y="640" as="targetPoint" />
          </mxGeometry>
        </mxCell>
        <mxCell id="nIHXjGnGd6invyZL4L8c-44" value="categories" style="shape=table;startSize=30;container=1;collapsible=1;childLayout=tableLayout;fixedRows=1;rowLines=0;fontStyle=1;align=center;resizeLast=1;html=1;whiteSpace=wrap;" parent="1" vertex="1">
          <mxGeometry x="720" y="487" width="180" height="120" as="geometry" />
        </mxCell>
        <mxCell id="nIHXjGnGd6invyZL4L8c-45" value="" style="shape=tableRow;horizontal=0;startSize=0;swimlaneHead=0;swimlaneBody=0;fillColor=none;collapsible=0;dropTarget=0;points=[[0,0.5],[1,0.5]];portConstraint=eastwest;top=0;left=0;right=0;bottom=1;html=1;" parent="nIHXjGnGd6invyZL4L8c-44" vertex="1">
          <mxGeometry y="30" width="180" height="30" as="geometry" />
        </mxCell>
        <mxCell id="nIHXjGnGd6invyZL4L8c-46" value="PK" style="shape=partialRectangle;connectable=0;fillColor=none;top=0;left=0;bottom=0;right=0;fontStyle=1;overflow=hidden;html=1;whiteSpace=wrap;" parent="nIHXjGnGd6invyZL4L8c-45" vertex="1">
          <mxGeometry width="30" height="30" as="geometry">
            <mxRectangle width="30" height="30" as="alternateBounds" />
          </mxGeometry>
        </mxCell>
        <mxCell id="nIHXjGnGd6invyZL4L8c-47" value="id" style="shape=partialRectangle;connectable=0;fillColor=none;top=0;left=0;bottom=0;right=0;align=left;spacingLeft=6;fontStyle=5;overflow=hidden;html=1;whiteSpace=wrap;" parent="nIHXjGnGd6invyZL4L8c-45" vertex="1">
          <mxGeometry x="30" width="150" height="30" as="geometry">
            <mxRectangle width="150" height="30" as="alternateBounds" />
          </mxGeometry>
        </mxCell>
        <mxCell id="nIHXjGnGd6invyZL4L8c-48" value="" style="shape=tableRow;horizontal=0;startSize=0;swimlaneHead=0;swimlaneBody=0;fillColor=none;collapsible=0;dropTarget=0;points=[[0,0.5],[1,0.5]];portConstraint=eastwest;top=0;left=0;right=0;bottom=0;html=1;" parent="nIHXjGnGd6invyZL4L8c-44" vertex="1">
          <mxGeometry y="60" width="180" height="30" as="geometry" />
        </mxCell>
        <mxCell id="nIHXjGnGd6invyZL4L8c-49" value="" style="shape=partialRectangle;connectable=0;fillColor=none;top=0;left=0;bottom=0;right=0;editable=1;overflow=hidden;html=1;whiteSpace=wrap;" parent="nIHXjGnGd6invyZL4L8c-48" vertex="1">
          <mxGeometry width="30" height="30" as="geometry">
            <mxRectangle width="30" height="30" as="alternateBounds" />
          </mxGeometry>
        </mxCell>
        <mxCell id="nIHXjGnGd6invyZL4L8c-50" value="name" style="shape=partialRectangle;connectable=0;fillColor=none;top=0;left=0;bottom=0;right=0;align=left;spacingLeft=6;overflow=hidden;html=1;whiteSpace=wrap;" parent="nIHXjGnGd6invyZL4L8c-48" vertex="1">
          <mxGeometry x="30" width="150" height="30" as="geometry">
            <mxRectangle width="150" height="30" as="alternateBounds" />
          </mxGeometry>
        </mxCell>
        <mxCell id="nIHXjGnGd6invyZL4L8c-51" value="" style="shape=tableRow;horizontal=0;startSize=0;swimlaneHead=0;swimlaneBody=0;fillColor=none;collapsible=0;dropTarget=0;points=[[0,0.5],[1,0.5]];portConstraint=eastwest;top=0;left=0;right=0;bottom=0;html=1;" parent="nIHXjGnGd6invyZL4L8c-44" vertex="1">
          <mxGeometry y="90" width="180" height="30" as="geometry" />
        </mxCell>
        <mxCell id="nIHXjGnGd6invyZL4L8c-52" value="" style="shape=partialRectangle;connectable=0;fillColor=none;top=0;left=0;bottom=0;right=0;editable=1;overflow=hidden;html=1;whiteSpace=wrap;" parent="nIHXjGnGd6invyZL4L8c-51" vertex="1">
          <mxGeometry width="30" height="30" as="geometry">
            <mxRectangle width="30" height="30" as="alternateBounds" />
          </mxGeometry>
        </mxCell>
        <mxCell id="nIHXjGnGd6invyZL4L8c-53" value="description" style="shape=partialRectangle;connectable=0;fillColor=none;top=0;left=0;bottom=0;right=0;align=left;spacingLeft=6;overflow=hidden;html=1;whiteSpace=wrap;" parent="nIHXjGnGd6invyZL4L8c-51" vertex="1">
          <mxGeometry x="30" width="150" height="30" as="geometry">
            <mxRectangle width="150" height="30" as="alternateBounds" />
          </mxGeometry>
        </mxCell>
        <mxCell id="nIHXjGnGd6invyZL4L8c-71" value="documents" style="shape=table;startSize=30;container=1;collapsible=1;childLayout=tableLayout;fixedRows=1;rowLines=0;fontStyle=1;align=center;resizeLast=1;html=1;whiteSpace=wrap;" parent="1" vertex="1">
          <mxGeometry x="480" y="450" width="180" height="150" as="geometry" />
        </mxCell>
        <mxCell id="nIHXjGnGd6invyZL4L8c-72" value="" style="shape=tableRow;horizontal=0;startSize=0;swimlaneHead=0;swimlaneBody=0;fillColor=none;collapsible=0;dropTarget=0;points=[[0,0.5],[1,0.5]];portConstraint=eastwest;top=0;left=0;right=0;bottom=0;html=1;swimlaneLine=1;" parent="nIHXjGnGd6invyZL4L8c-71" vertex="1">
          <mxGeometry y="30" width="180" height="30" as="geometry" />
        </mxCell>
        <mxCell id="nIHXjGnGd6invyZL4L8c-73" value="PK" style="shape=partialRectangle;connectable=0;fillColor=none;top=0;left=0;bottom=0;right=0;fontStyle=1;overflow=hidden;html=1;whiteSpace=wrap;" parent="nIHXjGnGd6invyZL4L8c-72" vertex="1">
          <mxGeometry width="30" height="30" as="geometry">
            <mxRectangle width="30" height="30" as="alternateBounds" />
          </mxGeometry>
        </mxCell>
        <mxCell id="nIHXjGnGd6invyZL4L8c-74" value="id" style="shape=partialRectangle;connectable=0;fillColor=none;top=0;left=0;bottom=0;right=0;align=left;spacingLeft=6;fontStyle=5;overflow=hidden;html=1;whiteSpace=wrap;strokeColor=inherit;" parent="nIHXjGnGd6invyZL4L8c-72" vertex="1">
          <mxGeometry x="30" width="150" height="30" as="geometry">
            <mxRectangle width="150" height="30" as="alternateBounds" />
          </mxGeometry>
        </mxCell>
        <mxCell id="nIHXjGnGd6invyZL4L8c-84" value="" style="shape=tableRow;horizontal=0;startSize=0;swimlaneHead=0;swimlaneBody=0;fillColor=none;collapsible=0;dropTarget=0;points=[[0,0.5],[1,0.5]];portConstraint=eastwest;top=0;left=0;right=0;bottom=1;html=1;swimlaneLine=1;strokeColor=default;" parent="nIHXjGnGd6invyZL4L8c-71" vertex="1">
          <mxGeometry y="60" width="180" height="30" as="geometry" />
        </mxCell>
        <mxCell id="nIHXjGnGd6invyZL4L8c-85" value="FK" style="shape=partialRectangle;connectable=0;fillColor=none;top=0;left=0;bottom=0;right=0;fontStyle=1;overflow=hidden;html=1;whiteSpace=wrap;" parent="nIHXjGnGd6invyZL4L8c-84" vertex="1">
          <mxGeometry width="30" height="30" as="geometry">
            <mxRectangle width="30" height="30" as="alternateBounds" />
          </mxGeometry>
        </mxCell>
        <mxCell id="nIHXjGnGd6invyZL4L8c-86" value="category_id" style="shape=partialRectangle;connectable=0;fillColor=none;top=0;left=0;bottom=0;right=0;align=left;spacingLeft=6;fontStyle=5;overflow=hidden;html=1;whiteSpace=wrap;" parent="nIHXjGnGd6invyZL4L8c-84" vertex="1">
          <mxGeometry x="30" width="150" height="30" as="geometry">
            <mxRectangle width="150" height="30" as="alternateBounds" />
          </mxGeometry>
        </mxCell>
        <mxCell id="nIHXjGnGd6invyZL4L8c-75" value="" style="shape=tableRow;horizontal=0;startSize=0;swimlaneHead=0;swimlaneBody=0;fillColor=none;collapsible=0;dropTarget=0;points=[[0,0.5],[1,0.5]];portConstraint=eastwest;top=0;left=0;right=0;bottom=0;html=1;" parent="nIHXjGnGd6invyZL4L8c-71" vertex="1">
          <mxGeometry y="90" width="180" height="30" as="geometry" />
        </mxCell>
        <mxCell id="nIHXjGnGd6invyZL4L8c-76" value="" style="shape=partialRectangle;connectable=0;fillColor=none;top=0;left=0;bottom=0;right=0;editable=1;overflow=hidden;html=1;whiteSpace=wrap;" parent="nIHXjGnGd6invyZL4L8c-75" vertex="1">
          <mxGeometry width="30" height="30" as="geometry">
            <mxRectangle width="30" height="30" as="alternateBounds" />
          </mxGeometry>
        </mxCell>
        <mxCell id="nIHXjGnGd6invyZL4L8c-77" value="name" style="shape=partialRectangle;connectable=0;fillColor=none;top=0;left=0;bottom=0;right=0;align=left;spacingLeft=6;overflow=hidden;html=1;whiteSpace=wrap;" parent="nIHXjGnGd6invyZL4L8c-75" vertex="1">
          <mxGeometry x="30" width="150" height="30" as="geometry">
            <mxRectangle width="150" height="30" as="alternateBounds" />
          </mxGeometry>
        </mxCell>
        <mxCell id="nIHXjGnGd6invyZL4L8c-81" value="" style="shape=tableRow;horizontal=0;startSize=0;swimlaneHead=0;swimlaneBody=0;fillColor=none;collapsible=0;dropTarget=0;points=[[0,0.5],[1,0.5]];portConstraint=eastwest;top=0;left=0;right=0;bottom=0;html=1;" parent="nIHXjGnGd6invyZL4L8c-71" vertex="1">
          <mxGeometry y="120" width="180" height="30" as="geometry" />
        </mxCell>
        <mxCell id="nIHXjGnGd6invyZL4L8c-82" value="" style="shape=partialRectangle;connectable=0;fillColor=none;top=0;left=0;bottom=0;right=0;editable=1;overflow=hidden;html=1;whiteSpace=wrap;" parent="nIHXjGnGd6invyZL4L8c-81" vertex="1">
          <mxGeometry width="30" height="30" as="geometry">
            <mxRectangle width="30" height="30" as="alternateBounds" />
          </mxGeometry>
        </mxCell>
        <mxCell id="nIHXjGnGd6invyZL4L8c-83" value="description" style="shape=partialRectangle;connectable=0;fillColor=none;top=0;left=0;bottom=0;right=0;align=left;spacingLeft=6;overflow=hidden;html=1;whiteSpace=wrap;" parent="nIHXjGnGd6invyZL4L8c-81" vertex="1">
          <mxGeometry x="30" width="150" height="30" as="geometry">
            <mxRectangle width="150" height="30" as="alternateBounds" />
          </mxGeometry>
        </mxCell>
      </root>
    </mxGraphModel>
  </diagram>
  <diagram id="30VeaYM1GDrFNxEVRw1F" name="Class_diagram">
    <mxGraphModel dx="4913" dy="3591" grid="1" gridSize="10" guides="1" tooltips="1" connect="1" arrows="1" fold="1" page="1" pageScale="1" pageWidth="850" pageHeight="1100" math="0" shadow="0">
      <root>
        <mxCell id="0" />
        <mxCell id="1" parent="0" />
        <mxCell id="FU4fpQDdCTPNlsp2JflQ-137" value="" style="rounded=0;whiteSpace=wrap;html=1;dashed=1;strokeWidth=3;fillColor=#fff2cc;strokeColor=#d6b656;dashPattern=8 8;" vertex="1" parent="1">
          <mxGeometry x="750" y="760" width="1130" height="620" as="geometry" />
        </mxCell>
        <mxCell id="FU4fpQDdCTPNlsp2JflQ-127" value="" style="rounded=0;whiteSpace=wrap;html=1;dashed=1;strokeWidth=3;fillColor=none;strokeColor=#999999;" vertex="1" parent="1">
          <mxGeometry x="1400" y="870" width="310" height="120" as="geometry" />
        </mxCell>
        <mxCell id="FU4fpQDdCTPNlsp2JflQ-124" value="" style="rounded=0;whiteSpace=wrap;html=1;dashed=1;strokeWidth=3;fillColor=#d5e8d4;strokeColor=#82b366;dashPattern=8 8;" vertex="1" parent="1">
          <mxGeometry x="90" y="1570" width="1090" height="430" as="geometry" />
        </mxCell>
        <mxCell id="FU4fpQDdCTPNlsp2JflQ-109" value="" style="rounded=0;whiteSpace=wrap;html=1;dashed=1;strokeWidth=3;fillColor=none;strokeColor=#999999;" vertex="1" parent="1">
          <mxGeometry x="130" y="1770" width="380" height="190" as="geometry" />
        </mxCell>
        <mxCell id="FU4fpQDdCTPNlsp2JflQ-82" value="" style="rounded=0;whiteSpace=wrap;html=1;dashed=1;strokeWidth=3;fillColor=#f8cecc;strokeColor=#b85450;dashPattern=8 8;" vertex="1" parent="1">
          <mxGeometry x="-690" y="820" width="1340" height="370" as="geometry" />
        </mxCell>
        <mxCell id="FU4fpQDdCTPNlsp2JflQ-79" value="" style="rounded=0;whiteSpace=wrap;html=1;dashed=1;strokeWidth=3;fillColor=none;strokeColor=#999999;" vertex="1" parent="1">
          <mxGeometry x="-650" y="900" width="350" height="120" as="geometry" />
        </mxCell>
        <mxCell id="FU4fpQDdCTPNlsp2JflQ-75" value="" style="rounded=0;whiteSpace=wrap;html=1;dashed=1;strokeWidth=3;fillColor=none;strokeColor=#999999;" vertex="1" parent="1">
          <mxGeometry x="190" y="970" width="430" height="120" as="geometry" />
        </mxCell>
        <mxCell id="FU4fpQDdCTPNlsp2JflQ-71" value="" style="rounded=0;whiteSpace=wrap;html=1;dashed=1;strokeWidth=3;fillColor=none;strokeColor=#999999;" vertex="1" parent="1">
          <mxGeometry x="-620" y="1050" width="310" height="120" as="geometry" />
        </mxCell>
        <mxCell id="FU4fpQDdCTPNlsp2JflQ-68" value="" style="rounded=0;whiteSpace=wrap;html=1;dashed=1;strokeWidth=3;fillColor=none;strokeColor=#999999;" vertex="1" parent="1">
          <mxGeometry x="-280" y="900" width="270" height="250" as="geometry" />
        </mxCell>
        <mxCell id="FU4fpQDdCTPNlsp2JflQ-57" value="" style="rounded=0;whiteSpace=wrap;html=1;dashed=1;strokeWidth=3;fillColor=#f5f5f5;strokeColor=#666666;fontColor=#333333;" vertex="1" parent="1">
          <mxGeometry x="-260" y="320" width="970" height="300" as="geometry" />
        </mxCell>
        <mxCell id="FU4fpQDdCTPNlsp2JflQ-38" value="" style="rounded=0;whiteSpace=wrap;html=1;dashed=1;strokeWidth=3;fillColor=#e1d5e7;strokeColor=#9673a6;" vertex="1" parent="1">
          <mxGeometry x="-30" y="-120" width="860" height="280" as="geometry" />
        </mxCell>
        <mxCell id="FU4fpQDdCTPNlsp2JflQ-1" value="DocumentEntity" style="swimlane;fontStyle=0;childLayout=stackLayout;horizontal=1;startSize=26;fillColor=none;horizontalStack=0;resizeParent=1;resizeParentMax=0;resizeLast=0;collapsible=1;marginBottom=0;whiteSpace=wrap;html=1;" vertex="1" parent="1">
          <mxGeometry x="290" y="-60" width="230" height="182" as="geometry" />
        </mxCell>
        <mxCell id="FU4fpQDdCTPNlsp2JflQ-2" value="+ id : ?int" style="text;strokeColor=none;fillColor=none;align=left;verticalAlign=top;spacingLeft=4;spacingRight=4;overflow=hidden;rotatable=0;points=[[0,0.5],[1,0.5]];portConstraint=eastwest;whiteSpace=wrap;html=1;" vertex="1" parent="FU4fpQDdCTPNlsp2JflQ-1">
          <mxGeometry y="26" width="230" height="26" as="geometry" />
        </mxCell>
        <mxCell id="FU4fpQDdCTPNlsp2JflQ-3" value="+ categoryId : ?int" style="text;strokeColor=none;fillColor=none;align=left;verticalAlign=top;spacingLeft=4;spacingRight=4;overflow=hidden;rotatable=0;points=[[0,0.5],[1,0.5]];portConstraint=eastwest;whiteSpace=wrap;html=1;" vertex="1" parent="FU4fpQDdCTPNlsp2JflQ-1">
          <mxGeometry y="52" width="230" height="26" as="geometry" />
        </mxCell>
        <mxCell id="FU4fpQDdCTPNlsp2JflQ-7" value="+ categoryName : ?string" style="text;strokeColor=none;fillColor=none;align=left;verticalAlign=top;spacingLeft=4;spacingRight=4;overflow=hidden;rotatable=0;points=[[0,0.5],[1,0.5]];portConstraint=eastwest;whiteSpace=wrap;html=1;" vertex="1" parent="FU4fpQDdCTPNlsp2JflQ-1">
          <mxGeometry y="78" width="230" height="26" as="geometry" />
        </mxCell>
        <mxCell id="FU4fpQDdCTPNlsp2JflQ-8" value="+ description : ?string" style="text;strokeColor=none;fillColor=none;align=left;verticalAlign=top;spacingLeft=4;spacingRight=4;overflow=hidden;rotatable=0;points=[[0,0.5],[1,0.5]];portConstraint=eastwest;whiteSpace=wrap;html=1;" vertex="1" parent="FU4fpQDdCTPNlsp2JflQ-1">
          <mxGeometry y="104" width="230" height="26" as="geometry" />
        </mxCell>
        <mxCell id="FU4fpQDdCTPNlsp2JflQ-9" value="+ fileCounts : ?int" style="text;strokeColor=none;fillColor=none;align=left;verticalAlign=top;spacingLeft=4;spacingRight=4;overflow=hidden;rotatable=0;points=[[0,0.5],[1,0.5]];portConstraint=eastwest;whiteSpace=wrap;html=1;" vertex="1" parent="FU4fpQDdCTPNlsp2JflQ-1">
          <mxGeometry y="130" width="230" height="26" as="geometry" />
        </mxCell>
        <mxCell id="FU4fpQDdCTPNlsp2JflQ-4" value="+ files : ?array&amp;lt;FileEntity&amp;gt;" style="text;strokeColor=none;fillColor=none;align=left;verticalAlign=top;spacingLeft=4;spacingRight=4;overflow=hidden;rotatable=0;points=[[0,0.5],[1,0.5]];portConstraint=eastwest;whiteSpace=wrap;html=1;" vertex="1" parent="FU4fpQDdCTPNlsp2JflQ-1">
          <mxGeometry y="156" width="230" height="26" as="geometry" />
        </mxCell>
        <mxCell id="FU4fpQDdCTPNlsp2JflQ-19" value="DocumentRepository&amp;nbsp;&lt;div&gt;&lt;b&gt;&amp;lt;&amp;lt;Interface&amp;gt;&amp;gt;&lt;/b&gt;&lt;/div&gt;" style="swimlane;fontStyle=0;childLayout=stackLayout;horizontal=1;startSize=40;fillColor=none;horizontalStack=0;resizeParent=1;resizeParentMax=0;resizeLast=0;collapsible=1;marginBottom=0;whiteSpace=wrap;html=1;" vertex="1" parent="1">
          <mxGeometry x="190" y="390" width="450" height="196" as="geometry" />
        </mxCell>
        <mxCell id="FU4fpQDdCTPNlsp2JflQ-20" value="+ index() : array&amp;lt;DocumnetEntity&amp;gt;" style="text;strokeColor=none;fillColor=none;align=left;verticalAlign=top;spacingLeft=4;spacingRight=4;overflow=hidden;rotatable=0;points=[[0,0.5],[1,0.5]];portConstraint=eastwest;whiteSpace=wrap;html=1;" vertex="1" parent="FU4fpQDdCTPNlsp2JflQ-19">
          <mxGeometry y="40" width="450" height="26" as="geometry" />
        </mxCell>
        <mxCell id="FU4fpQDdCTPNlsp2JflQ-21" value="+ store(document:DocumentEntity) : DocumentEntity" style="text;strokeColor=none;fillColor=none;align=left;verticalAlign=top;spacingLeft=4;spacingRight=4;overflow=hidden;rotatable=0;points=[[0,0.5],[1,0.5]];portConstraint=eastwest;whiteSpace=wrap;html=1;" vertex="1" parent="FU4fpQDdCTPNlsp2JflQ-19">
          <mxGeometry y="66" width="450" height="26" as="geometry" />
        </mxCell>
        <mxCell id="FU4fpQDdCTPNlsp2JflQ-22" value="+ update (document: array&amp;lt;DocumentEntity&amp;gt;) : int" style="text;strokeColor=none;fillColor=none;align=left;verticalAlign=top;spacingLeft=4;spacingRight=4;overflow=hidden;rotatable=0;points=[[0,0.5],[1,0.5]];portConstraint=eastwest;whiteSpace=wrap;html=1;" vertex="1" parent="FU4fpQDdCTPNlsp2JflQ-19">
          <mxGeometry y="92" width="450" height="26" as="geometry" />
        </mxCell>
        <mxCell id="FU4fpQDdCTPNlsp2JflQ-23" value="+ destroy (id : int) : int" style="text;strokeColor=none;fillColor=none;align=left;verticalAlign=top;spacingLeft=4;spacingRight=4;overflow=hidden;rotatable=0;points=[[0,0.5],[1,0.5]];portConstraint=eastwest;whiteSpace=wrap;html=1;" vertex="1" parent="FU4fpQDdCTPNlsp2JflQ-19">
          <mxGeometry y="118" width="450" height="26" as="geometry" />
        </mxCell>
        <mxCell id="FU4fpQDdCTPNlsp2JflQ-24" value="+ fileCounts : ?int" style="text;strokeColor=none;fillColor=none;align=left;verticalAlign=top;spacingLeft=4;spacingRight=4;overflow=hidden;rotatable=0;points=[[0,0.5],[1,0.5]];portConstraint=eastwest;whiteSpace=wrap;html=1;" vertex="1" parent="FU4fpQDdCTPNlsp2JflQ-19">
          <mxGeometry y="144" width="450" height="26" as="geometry" />
        </mxCell>
        <mxCell id="FU4fpQDdCTPNlsp2JflQ-25" value="+ moveDocumentFromCatgoryToDefault (categoryId :int&amp;nbsp; , defaultCategoryId :int&lt;span style=&quot;background-color: transparent; color: light-dark(rgb(0, 0, 0), rgb(255, 255, 255));&quot;&gt;)&lt;/span&gt;" style="text;strokeColor=none;fillColor=none;align=left;verticalAlign=top;spacingLeft=4;spacingRight=4;overflow=hidden;rotatable=0;points=[[0,0.5],[1,0.5]];portConstraint=eastwest;whiteSpace=wrap;html=1;" vertex="1" parent="FU4fpQDdCTPNlsp2JflQ-19">
          <mxGeometry y="170" width="450" height="26" as="geometry" />
        </mxCell>
        <mxCell id="FU4fpQDdCTPNlsp2JflQ-26" value="CategoryEntity" style="swimlane;fontStyle=0;childLayout=stackLayout;horizontal=1;startSize=26;fillColor=none;horizontalStack=0;resizeParent=1;resizeParentMax=0;resizeLast=0;collapsible=1;marginBottom=0;whiteSpace=wrap;html=1;" vertex="1" parent="1">
          <mxGeometry x="560" y="-34" width="230" height="130" as="geometry" />
        </mxCell>
        <mxCell id="FU4fpQDdCTPNlsp2JflQ-27" value="+ id : ?int" style="text;strokeColor=none;fillColor=none;align=left;verticalAlign=top;spacingLeft=4;spacingRight=4;overflow=hidden;rotatable=0;points=[[0,0.5],[1,0.5]];portConstraint=eastwest;whiteSpace=wrap;html=1;" vertex="1" parent="FU4fpQDdCTPNlsp2JflQ-26">
          <mxGeometry y="26" width="230" height="26" as="geometry" />
        </mxCell>
        <mxCell id="FU4fpQDdCTPNlsp2JflQ-28" value="+ name : ?string" style="text;strokeColor=none;fillColor=none;align=left;verticalAlign=top;spacingLeft=4;spacingRight=4;overflow=hidden;rotatable=0;points=[[0,0.5],[1,0.5]];portConstraint=eastwest;whiteSpace=wrap;html=1;" vertex="1" parent="FU4fpQDdCTPNlsp2JflQ-26">
          <mxGeometry y="52" width="230" height="26" as="geometry" />
        </mxCell>
        <mxCell id="FU4fpQDdCTPNlsp2JflQ-29" value="+ categoryName : ?string" style="text;strokeColor=none;fillColor=none;align=left;verticalAlign=top;spacingLeft=4;spacingRight=4;overflow=hidden;rotatable=0;points=[[0,0.5],[1,0.5]];portConstraint=eastwest;whiteSpace=wrap;html=1;" vertex="1" parent="FU4fpQDdCTPNlsp2JflQ-26">
          <mxGeometry y="78" width="230" height="26" as="geometry" />
        </mxCell>
        <mxCell id="FU4fpQDdCTPNlsp2JflQ-30" value="+ description : ?string" style="text;strokeColor=none;fillColor=none;align=left;verticalAlign=top;spacingLeft=4;spacingRight=4;overflow=hidden;rotatable=0;points=[[0,0.5],[1,0.5]];portConstraint=eastwest;whiteSpace=wrap;html=1;" vertex="1" parent="FU4fpQDdCTPNlsp2JflQ-26">
          <mxGeometry y="104" width="230" height="26" as="geometry" />
        </mxCell>
        <mxCell id="FU4fpQDdCTPNlsp2JflQ-33" value="FileEntity" style="swimlane;fontStyle=0;childLayout=stackLayout;horizontal=1;startSize=26;fillColor=none;horizontalStack=0;resizeParent=1;resizeParentMax=0;resizeLast=0;collapsible=1;marginBottom=0;whiteSpace=wrap;html=1;" vertex="1" parent="1">
          <mxGeometry x="30" y="-32" width="230" height="104" as="geometry" />
        </mxCell>
        <mxCell id="FU4fpQDdCTPNlsp2JflQ-34" value="+ id : ?int" style="text;strokeColor=none;fillColor=none;align=left;verticalAlign=top;spacingLeft=4;spacingRight=4;overflow=hidden;rotatable=0;points=[[0,0.5],[1,0.5]];portConstraint=eastwest;whiteSpace=wrap;html=1;" vertex="1" parent="FU4fpQDdCTPNlsp2JflQ-33">
          <mxGeometry y="26" width="230" height="26" as="geometry" />
        </mxCell>
        <mxCell id="FU4fpQDdCTPNlsp2JflQ-35" value="+ documentIId : ?int" style="text;strokeColor=none;fillColor=none;align=left;verticalAlign=top;spacingLeft=4;spacingRight=4;overflow=hidden;rotatable=0;points=[[0,0.5],[1,0.5]];portConstraint=eastwest;whiteSpace=wrap;html=1;" vertex="1" parent="FU4fpQDdCTPNlsp2JflQ-33">
          <mxGeometry y="52" width="230" height="26" as="geometry" />
        </mxCell>
        <mxCell id="FU4fpQDdCTPNlsp2JflQ-36" value="+ file : ?string" style="text;strokeColor=none;fillColor=none;align=left;verticalAlign=top;spacingLeft=4;spacingRight=4;overflow=hidden;rotatable=0;points=[[0,0.5],[1,0.5]];portConstraint=eastwest;whiteSpace=wrap;html=1;" vertex="1" parent="FU4fpQDdCTPNlsp2JflQ-33">
          <mxGeometry y="78" width="230" height="26" as="geometry" />
        </mxCell>
        <mxCell id="FU4fpQDdCTPNlsp2JflQ-39" value="&lt;font style=&quot;font-size: 27px;&quot;&gt;&lt;b style=&quot;&quot;&gt;Entity&lt;/b&gt;&lt;/font&gt;" style="text;html=1;align=center;verticalAlign=middle;whiteSpace=wrap;rounded=0;fillColor=#dae8fc;strokeColor=#6c8ebf;" vertex="1" parent="1">
          <mxGeometry x="-10" y="-110" width="60" height="30" as="geometry" />
        </mxCell>
        <mxCell id="FU4fpQDdCTPNlsp2JflQ-41" value="FileStorage&amp;nbsp;&lt;div&gt;&lt;b&gt;&amp;lt;&amp;lt;Interface&amp;gt;&amp;gt;&lt;/b&gt;&lt;/div&gt;" style="swimlane;fontStyle=0;childLayout=stackLayout;horizontal=1;startSize=40;fillColor=none;horizontalStack=0;resizeParent=1;resizeParentMax=0;resizeLast=0;collapsible=1;marginBottom=0;whiteSpace=wrap;html=1;" vertex="1" parent="1">
          <mxGeometry x="-220" y="390" width="360" height="92" as="geometry" />
        </mxCell>
        <mxCell id="FU4fpQDdCTPNlsp2JflQ-42" value="+ save (path : string , fileName : string , content : string) : bool" style="text;strokeColor=none;fillColor=none;align=left;verticalAlign=top;spacingLeft=4;spacingRight=4;overflow=hidden;rotatable=0;points=[[0,0.5],[1,0.5]];portConstraint=eastwest;whiteSpace=wrap;html=1;" vertex="1" parent="FU4fpQDdCTPNlsp2JflQ-41">
          <mxGeometry y="40" width="360" height="26" as="geometry" />
        </mxCell>
        <mxCell id="FU4fpQDdCTPNlsp2JflQ-43" value="+ delete (path :string , fileName : string)" style="text;strokeColor=none;fillColor=none;align=left;verticalAlign=top;spacingLeft=4;spacingRight=4;overflow=hidden;rotatable=0;points=[[0,0.5],[1,0.5]];portConstraint=eastwest;whiteSpace=wrap;html=1;" vertex="1" parent="FU4fpQDdCTPNlsp2JflQ-41">
          <mxGeometry y="66" width="360" height="26" as="geometry" />
        </mxCell>
        <mxCell id="FU4fpQDdCTPNlsp2JflQ-58" value="&lt;font style=&quot;font-size: 27px;&quot;&gt;&lt;b style=&quot;&quot;&gt;Domain (Shared)&lt;/b&gt;&lt;/font&gt;" style="text;html=1;align=center;verticalAlign=middle;whiteSpace=wrap;rounded=0;fillColor=#dae8fc;strokeColor=#6c8ebf;" vertex="1" parent="1">
          <mxGeometry x="-230" y="330" width="220" height="30" as="geometry" />
        </mxCell>
        <mxCell id="FU4fpQDdCTPNlsp2JflQ-60" style="edgeStyle=orthogonalEdgeStyle;rounded=0;orthogonalLoop=1;jettySize=auto;html=1;entryX=0.417;entryY=0.969;entryDx=0;entryDy=0;entryPerimeter=0;endArrow=classic;endFill=1;exitX=0.435;exitY=-0.006;exitDx=0;exitDy=0;exitPerimeter=0;endSize=12;strokeWidth=2;" edge="1" parent="1" source="FU4fpQDdCTPNlsp2JflQ-19" target="FU4fpQDdCTPNlsp2JflQ-4">
          <mxGeometry relative="1" as="geometry" />
        </mxCell>
        <mxCell id="FU4fpQDdCTPNlsp2JflQ-61" style="edgeStyle=orthogonalEdgeStyle;rounded=0;orthogonalLoop=1;jettySize=auto;html=1;entryX=0.346;entryY=0.962;entryDx=0;entryDy=0;entryPerimeter=0;endArrow=classic;endFill=1;endSize=12;strokeWidth=2;" edge="1" parent="1" source="FU4fpQDdCTPNlsp2JflQ-19" target="FU4fpQDdCTPNlsp2JflQ-30">
          <mxGeometry relative="1" as="geometry">
            <Array as="points">
              <mxPoint x="570" y="338" />
              <mxPoint x="640" y="338" />
            </Array>
          </mxGeometry>
        </mxCell>
        <mxCell id="FU4fpQDdCTPNlsp2JflQ-62" style="edgeStyle=orthogonalEdgeStyle;rounded=0;orthogonalLoop=1;jettySize=auto;html=1;entryX=0.33;entryY=0.987;entryDx=0;entryDy=0;entryPerimeter=0;endArrow=classic;endFill=1;endSize=12;strokeWidth=2;" edge="1" parent="1" source="FU4fpQDdCTPNlsp2JflQ-19" target="FU4fpQDdCTPNlsp2JflQ-36">
          <mxGeometry relative="1" as="geometry">
            <Array as="points">
              <mxPoint x="260" y="326" />
              <mxPoint x="106" y="326" />
            </Array>
          </mxGeometry>
        </mxCell>
        <mxCell id="FU4fpQDdCTPNlsp2JflQ-65" value="Document" style="html=1;whiteSpace=wrap;fillColor=none;" vertex="1" parent="1">
          <mxGeometry x="-250" y="950" width="110" height="50" as="geometry" />
        </mxCell>
        <mxCell id="FU4fpQDdCTPNlsp2JflQ-66" value="File" style="html=1;whiteSpace=wrap;fillColor=none;" vertex="1" parent="1">
          <mxGeometry x="-250" y="1010" width="110" height="50" as="geometry" />
        </mxCell>
        <mxCell id="FU4fpQDdCTPNlsp2JflQ-67" value="Category" style="html=1;whiteSpace=wrap;fillColor=none;" vertex="1" parent="1">
          <mxGeometry x="-250" y="1070" width="110" height="50" as="geometry" />
        </mxCell>
        <mxCell id="FU4fpQDdCTPNlsp2JflQ-69" value="&lt;font style=&quot;font-size: 27px;&quot;&gt;&lt;b style=&quot;&quot;&gt;Laravel Models&lt;/b&gt;&lt;/font&gt;" style="text;html=1;align=center;verticalAlign=middle;whiteSpace=wrap;rounded=0;" vertex="1" parent="1">
          <mxGeometry x="-270" y="910" width="220" height="30" as="geometry" />
        </mxCell>
        <mxCell id="FU4fpQDdCTPNlsp2JflQ-70" value="SharedServerProvider" style="html=1;whiteSpace=wrap;fillColor=none;" vertex="1" parent="1">
          <mxGeometry x="-580" y="1100" width="150" height="50" as="geometry" />
        </mxCell>
        <mxCell id="FU4fpQDdCTPNlsp2JflQ-72" value="&lt;span style=&quot;font-size: 27px;&quot;&gt;&lt;b&gt;Service Provider&lt;/b&gt;&lt;/span&gt;" style="text;html=1;align=center;verticalAlign=middle;whiteSpace=wrap;rounded=0;" vertex="1" parent="1">
          <mxGeometry x="-620" y="1060" width="220" height="30" as="geometry" />
        </mxCell>
        <mxCell id="FU4fpQDdCTPNlsp2JflQ-73" value="EloquentCategoryRepository" style="html=1;whiteSpace=wrap;fillColor=none;" vertex="1" parent="1">
          <mxGeometry x="380" y="1010" width="200" height="50" as="geometry" />
        </mxCell>
        <mxCell id="FU4fpQDdCTPNlsp2JflQ-76" value="&lt;font style=&quot;font-size: 27px;&quot;&gt;&lt;b style=&quot;&quot;&gt;Repositories&lt;/b&gt;&lt;/font&gt;" style="text;html=1;align=center;verticalAlign=middle;whiteSpace=wrap;rounded=0;" vertex="1" parent="1">
          <mxGeometry x="185" y="980" width="220" height="30" as="geometry" />
        </mxCell>
        <mxCell id="FU4fpQDdCTPNlsp2JflQ-77" style="edgeStyle=orthogonalEdgeStyle;rounded=0;orthogonalLoop=1;jettySize=auto;html=1;entryX=0.647;entryY=0.979;entryDx=0;entryDy=0;entryPerimeter=0;endArrow=block;endFill=0;strokeWidth=2;endSize=12;" edge="1" parent="1" source="FU4fpQDdCTPNlsp2JflQ-73" target="FU4fpQDdCTPNlsp2JflQ-25">
          <mxGeometry relative="1" as="geometry" />
        </mxCell>
        <mxCell id="FU4fpQDdCTPNlsp2JflQ-78" value="LaravelStorage" style="html=1;whiteSpace=wrap;fillColor=none;" vertex="1" parent="1">
          <mxGeometry x="-495" y="940" width="140" height="50" as="geometry" />
        </mxCell>
        <mxCell id="FU4fpQDdCTPNlsp2JflQ-80" value="&lt;span style=&quot;font-size: 27px;&quot;&gt;&lt;b&gt;Storage&lt;/b&gt;&lt;/span&gt;" style="text;html=1;align=center;verticalAlign=middle;whiteSpace=wrap;rounded=0;" vertex="1" parent="1">
          <mxGeometry x="-650" y="910" width="130" height="30" as="geometry" />
        </mxCell>
        <mxCell id="FU4fpQDdCTPNlsp2JflQ-81" style="edgeStyle=orthogonalEdgeStyle;rounded=0;orthogonalLoop=1;jettySize=auto;html=1;entryX=0.507;entryY=1.033;entryDx=0;entryDy=0;entryPerimeter=0;endArrow=block;endFill=0;strokeWidth=2;endSize=12;" edge="1" parent="1" source="FU4fpQDdCTPNlsp2JflQ-78" target="FU4fpQDdCTPNlsp2JflQ-43">
          <mxGeometry relative="1" as="geometry" />
        </mxCell>
        <mxCell id="FU4fpQDdCTPNlsp2JflQ-83" value="&lt;font style=&quot;font-size: 27px;&quot;&gt;&lt;b style=&quot;&quot;&gt;Infrastrctrue (Shared)&lt;/b&gt;&lt;/font&gt;" style="text;html=1;align=center;verticalAlign=middle;whiteSpace=wrap;rounded=0;fillColor=#dae8fc;strokeColor=#6c8ebf;" vertex="1" parent="1">
          <mxGeometry x="-215" y="830" width="300" height="30" as="geometry" />
        </mxCell>
        <mxCell id="FU4fpQDdCTPNlsp2JflQ-84" value="GetDocumentContract&lt;div&gt;&lt;b&gt;&amp;lt;&amp;lt;Interface&amp;gt;&amp;gt;&lt;/b&gt;&lt;/div&gt;" style="swimlane;fontStyle=0;childLayout=stackLayout;horizontal=1;startSize=40;fillColor=none;horizontalStack=0;resizeParent=1;resizeParentMax=0;resizeLast=0;collapsible=1;marginBottom=0;whiteSpace=wrap;html=1;" vertex="1" parent="1">
          <mxGeometry x="1340" y="1083" width="450" height="92" as="geometry" />
        </mxCell>
        <mxCell id="FU4fpQDdCTPNlsp2JflQ-85" value="+ all( output : GetAllDocumentOutput) : void" style="text;strokeColor=none;fillColor=none;align=left;verticalAlign=top;spacingLeft=4;spacingRight=4;overflow=hidden;rotatable=0;points=[[0,0.5],[1,0.5]];portConstraint=eastwest;whiteSpace=wrap;html=1;" vertex="1" parent="FU4fpQDdCTPNlsp2JflQ-84">
          <mxGeometry y="40" width="450" height="26" as="geometry" />
        </mxCell>
        <mxCell id="FU4fpQDdCTPNlsp2JflQ-86" value="+ show( output : ShowDocumentOutput) : void&amp;nbsp;" style="text;strokeColor=none;fillColor=none;align=left;verticalAlign=top;spacingLeft=4;spacingRight=4;overflow=hidden;rotatable=0;points=[[0,0.5],[1,0.5]];portConstraint=eastwest;whiteSpace=wrap;html=1;" vertex="1" parent="FU4fpQDdCTPNlsp2JflQ-84">
          <mxGeometry y="66" width="450" height="26" as="geometry" />
        </mxCell>
        <mxCell id="FU4fpQDdCTPNlsp2JflQ-91" value="GetAllDocumentOutput&lt;div&gt;&lt;b&gt;&amp;lt;&amp;lt;Interface&amp;gt;&amp;gt;&lt;/b&gt;&lt;/div&gt;" style="swimlane;fontStyle=0;childLayout=stackLayout;horizontal=1;startSize=40;fillColor=none;horizontalStack=0;resizeParent=1;resizeParentMax=0;resizeLast=0;collapsible=1;marginBottom=0;whiteSpace=wrap;html=1;" vertex="1" parent="1">
          <mxGeometry x="810" y="1220" width="450" height="92" as="geometry" />
        </mxCell>
        <mxCell id="FU4fpQDdCTPNlsp2JflQ-92" value="+ onSuccess (documents : array&amp;lt;Document&amp;gt;): void" style="text;strokeColor=none;fillColor=none;align=left;verticalAlign=top;spacingLeft=4;spacingRight=4;overflow=hidden;rotatable=0;points=[[0,0.5],[1,0.5]];portConstraint=eastwest;whiteSpace=wrap;html=1;" vertex="1" parent="FU4fpQDdCTPNlsp2JflQ-91">
          <mxGeometry y="40" width="450" height="26" as="geometry" />
        </mxCell>
        <mxCell id="FU4fpQDdCTPNlsp2JflQ-93" value="+&amp;nbsp; onFailure (error : string) : void" style="text;strokeColor=none;fillColor=none;align=left;verticalAlign=top;spacingLeft=4;spacingRight=4;overflow=hidden;rotatable=0;points=[[0,0.5],[1,0.5]];portConstraint=eastwest;whiteSpace=wrap;html=1;" vertex="1" parent="FU4fpQDdCTPNlsp2JflQ-91">
          <mxGeometry y="66" width="450" height="26" as="geometry" />
        </mxCell>
        <mxCell id="FU4fpQDdCTPNlsp2JflQ-112" style="edgeStyle=orthogonalEdgeStyle;rounded=0;orthogonalLoop=1;jettySize=auto;html=1;endArrow=classic;endFill=1;strokeWidth=2;endSize=12;" edge="1" parent="1" source="FU4fpQDdCTPNlsp2JflQ-94" target="FU4fpQDdCTPNlsp2JflQ-91">
          <mxGeometry relative="1" as="geometry" />
        </mxCell>
        <mxCell id="FU4fpQDdCTPNlsp2JflQ-94" value="GetDocumentUseCase" style="html=1;whiteSpace=wrap;fillColor=none;" vertex="1" parent="1">
          <mxGeometry x="845" y="950" width="200" height="50" as="geometry" />
        </mxCell>
        <mxCell id="FU4fpQDdCTPNlsp2JflQ-95" style="edgeStyle=orthogonalEdgeStyle;rounded=0;orthogonalLoop=1;jettySize=auto;html=1;entryX=0;entryY=0.5;entryDx=0;entryDy=0;endArrow=block;endFill=0;strokeWidth=2;endSize=12;exitX=1;exitY=0.5;exitDx=0;exitDy=0;" edge="1" parent="1" source="FU4fpQDdCTPNlsp2JflQ-94" target="FU4fpQDdCTPNlsp2JflQ-85">
          <mxGeometry relative="1" as="geometry">
            <mxPoint x="600" y="1035" as="sourcePoint" />
            <mxPoint x="601" y="730" as="targetPoint" />
          </mxGeometry>
        </mxCell>
        <mxCell id="FU4fpQDdCTPNlsp2JflQ-97" style="edgeStyle=orthogonalEdgeStyle;rounded=0;orthogonalLoop=1;jettySize=auto;html=1;entryX=0.807;entryY=0.976;entryDx=0;entryDy=0;entryPerimeter=0;exitX=0;exitY=0.5;exitDx=0;exitDy=0;strokeWidth=2;endSize=12;" edge="1" parent="1" source="FU4fpQDdCTPNlsp2JflQ-94" target="FU4fpQDdCTPNlsp2JflQ-25">
          <mxGeometry relative="1" as="geometry">
            <Array as="points">
              <mxPoint x="700" y="975" />
              <mxPoint x="700" y="730" />
              <mxPoint x="553" y="730" />
            </Array>
          </mxGeometry>
        </mxCell>
        <mxCell id="FU4fpQDdCTPNlsp2JflQ-99" style="edgeStyle=orthogonalEdgeStyle;rounded=0;orthogonalLoop=1;jettySize=auto;html=1;exitX=0;exitY=0.5;exitDx=0;exitDy=0;strokeWidth=2;endSize=12;entryX=1;entryY=0.5;entryDx=0;entryDy=0;" edge="1" parent="1" source="FU4fpQDdCTPNlsp2JflQ-73" target="FU4fpQDdCTPNlsp2JflQ-65">
          <mxGeometry relative="1" as="geometry">
            <mxPoint x="757" y="1155" as="sourcePoint" />
            <mxPoint x="550" y="740" as="targetPoint" />
          </mxGeometry>
        </mxCell>
        <mxCell id="FU4fpQDdCTPNlsp2JflQ-100" style="edgeStyle=orthogonalEdgeStyle;rounded=0;orthogonalLoop=1;jettySize=auto;html=1;strokeWidth=2;endSize=12;entryX=1;entryY=0.5;entryDx=0;entryDy=0;" edge="1" parent="1" source="FU4fpQDdCTPNlsp2JflQ-73" target="FU4fpQDdCTPNlsp2JflQ-66">
          <mxGeometry relative="1" as="geometry">
            <mxPoint x="880" y="950" as="sourcePoint" />
            <mxPoint x="360" y="972" as="targetPoint" />
          </mxGeometry>
        </mxCell>
        <mxCell id="FU4fpQDdCTPNlsp2JflQ-101" style="edgeStyle=orthogonalEdgeStyle;rounded=0;orthogonalLoop=1;jettySize=auto;html=1;exitX=0;exitY=0.5;exitDx=0;exitDy=0;strokeWidth=2;endSize=12;entryX=1;entryY=0.5;entryDx=0;entryDy=0;" edge="1" parent="1" source="FU4fpQDdCTPNlsp2JflQ-73" target="FU4fpQDdCTPNlsp2JflQ-67">
          <mxGeometry relative="1" as="geometry">
            <mxPoint x="910" y="1040" as="sourcePoint" />
            <mxPoint x="390" y="1050" as="targetPoint" />
          </mxGeometry>
        </mxCell>
        <mxCell id="FU4fpQDdCTPNlsp2JflQ-104" value="" style="rounded=0;whiteSpace=wrap;html=1;dashed=1;strokeWidth=3;fillColor=none;strokeColor=#999999;" vertex="1" parent="1">
          <mxGeometry x="700" y="1640" width="450" height="120" as="geometry" />
        </mxCell>
        <mxCell id="FU4fpQDdCTPNlsp2JflQ-111" style="edgeStyle=orthogonalEdgeStyle;rounded=0;orthogonalLoop=1;jettySize=auto;html=1;endArrow=block;endFill=0;strokeWidth=2;endSize=12;entryX=0.496;entryY=1.02;entryDx=0;entryDy=0;entryPerimeter=0;exitX=0.673;exitY=-0.023;exitDx=0;exitDy=0;exitPerimeter=0;" edge="1" parent="1" source="FU4fpQDdCTPNlsp2JflQ-105" target="FU4fpQDdCTPNlsp2JflQ-93">
          <mxGeometry relative="1" as="geometry" />
        </mxCell>
        <mxCell id="FU4fpQDdCTPNlsp2JflQ-105" value="DocumentIndexPresenter.php" style="html=1;whiteSpace=wrap;fillColor=none;" vertex="1" parent="1">
          <mxGeometry x="899" y="1690" width="200" height="50" as="geometry" />
        </mxCell>
        <mxCell id="FU4fpQDdCTPNlsp2JflQ-107" value="DocumentStoreRequest" style="html=1;whiteSpace=wrap;fillColor=none;" vertex="1" parent="1">
          <mxGeometry x="280" y="1820" width="200" height="50" as="geometry" />
        </mxCell>
        <mxCell id="FU4fpQDdCTPNlsp2JflQ-108" value="DocumentUpdateRequest" style="html=1;whiteSpace=wrap;fillColor=none;" vertex="1" parent="1">
          <mxGeometry x="280" y="1880" width="200" height="50" as="geometry" />
        </mxCell>
        <mxCell id="FU4fpQDdCTPNlsp2JflQ-110" value="&lt;span style=&quot;font-size: 27px;&quot;&gt;&lt;b&gt;Presenters&lt;/b&gt;&lt;/span&gt;" style="text;html=1;align=center;verticalAlign=middle;whiteSpace=wrap;rounded=0;" vertex="1" parent="1">
          <mxGeometry x="725" y="1650" width="130" height="30" as="geometry" />
        </mxCell>
        <mxCell id="FU4fpQDdCTPNlsp2JflQ-122" style="edgeStyle=orthogonalEdgeStyle;rounded=0;orthogonalLoop=1;jettySize=auto;html=1;entryX=1;entryY=0.5;entryDx=0;entryDy=0;endSize=11;strokeWidth=2;" edge="1" parent="1" source="FU4fpQDdCTPNlsp2JflQ-114" target="FU4fpQDdCTPNlsp2JflQ-107">
          <mxGeometry relative="1" as="geometry" />
        </mxCell>
        <mxCell id="FU4fpQDdCTPNlsp2JflQ-123" style="edgeStyle=orthogonalEdgeStyle;rounded=0;orthogonalLoop=1;jettySize=auto;html=1;entryX=1;entryY=0.5;entryDx=0;entryDy=0;endSize=11;strokeWidth=2;" edge="1" parent="1" source="FU4fpQDdCTPNlsp2JflQ-114" target="FU4fpQDdCTPNlsp2JflQ-108">
          <mxGeometry relative="1" as="geometry" />
        </mxCell>
        <mxCell id="FU4fpQDdCTPNlsp2JflQ-114" value="DocumentController" style="html=1;whiteSpace=wrap;fillColor=none;" vertex="1" parent="1">
          <mxGeometry x="893" y="1850" width="200" height="50" as="geometry" />
        </mxCell>
        <mxCell id="FU4fpQDdCTPNlsp2JflQ-115" value="&lt;span style=&quot;font-size: 27px;&quot;&gt;&lt;b&gt;Requests&lt;/b&gt;&lt;/span&gt;" style="text;html=1;align=center;verticalAlign=middle;whiteSpace=wrap;rounded=0;" vertex="1" parent="1">
          <mxGeometry x="145" y="1780" width="130" height="30" as="geometry" />
        </mxCell>
        <mxCell id="FU4fpQDdCTPNlsp2JflQ-116" value="&lt;span style=&quot;font-size: 27px;&quot;&gt;&lt;b&gt;Controllers&lt;/b&gt;&lt;/span&gt;" style="text;html=1;align=center;verticalAlign=middle;whiteSpace=wrap;rounded=0;" vertex="1" parent="1">
          <mxGeometry x="730" y="1820" width="130" height="30" as="geometry" />
        </mxCell>
        <mxCell id="FU4fpQDdCTPNlsp2JflQ-117" style="edgeStyle=orthogonalEdgeStyle;rounded=0;orthogonalLoop=1;jettySize=auto;html=1;entryX=0.471;entryY=1.002;entryDx=0;entryDy=0;entryPerimeter=0;endArrow=classic;endFill=1;strokeWidth=2;endSize=12;exitX=1;exitY=0.5;exitDx=0;exitDy=0;" edge="1" parent="1" source="FU4fpQDdCTPNlsp2JflQ-114" target="FU4fpQDdCTPNlsp2JflQ-86">
          <mxGeometry relative="1" as="geometry" />
        </mxCell>
        <mxCell id="FU4fpQDdCTPNlsp2JflQ-125" value="&lt;span style=&quot;font-size: 27px;&quot;&gt;&lt;b&gt;Presentation&lt;/b&gt;&lt;/span&gt;" style="text;html=1;align=center;verticalAlign=middle;whiteSpace=wrap;rounded=0;fillColor=#dae8fc;strokeColor=#6c8ebf;" vertex="1" parent="1">
          <mxGeometry x="530" y="1570" width="300" height="30" as="geometry" />
        </mxCell>
        <mxCell id="FU4fpQDdCTPNlsp2JflQ-126" value="DocumentsStoreInputDTO" style="html=1;whiteSpace=wrap;fillColor=none;" vertex="1" parent="1">
          <mxGeometry x="1490" y="895" width="200" height="50" as="geometry" />
        </mxCell>
        <mxCell id="FU4fpQDdCTPNlsp2JflQ-128" value="&lt;span style=&quot;font-size: 27px;&quot;&gt;&lt;b&gt;DTOs&lt;/b&gt;&lt;/span&gt;" style="text;html=1;align=center;verticalAlign=middle;whiteSpace=wrap;rounded=0;" vertex="1" parent="1">
          <mxGeometry x="1380" y="875" width="130" height="30" as="geometry" />
        </mxCell>
        <mxCell id="FU4fpQDdCTPNlsp2JflQ-132" value="" style="rounded=0;whiteSpace=wrap;html=1;dashed=1;strokeWidth=3;fillColor=none;strokeColor=#999999;" vertex="1" parent="1">
          <mxGeometry x="1300" y="1040" width="510" height="170" as="geometry" />
        </mxCell>
        <mxCell id="FU4fpQDdCTPNlsp2JflQ-133" value="&lt;span style=&quot;font-size: 27px;&quot;&gt;&lt;b&gt;Contracts&lt;/b&gt;&lt;/span&gt;" style="text;html=1;align=center;verticalAlign=middle;whiteSpace=wrap;rounded=0;" vertex="1" parent="1">
          <mxGeometry x="1310" y="1040" width="130" height="30" as="geometry" />
        </mxCell>
        <mxCell id="FU4fpQDdCTPNlsp2JflQ-135" value="&lt;span style=&quot;font-size: 27px;&quot;&gt;&lt;b&gt;UseCases&lt;/b&gt;&lt;/span&gt;" style="text;html=1;align=center;verticalAlign=middle;whiteSpace=wrap;rounded=0;" vertex="1" parent="1">
          <mxGeometry x="998" y="890" width="130" height="30" as="geometry" />
        </mxCell>
        <mxCell id="FU4fpQDdCTPNlsp2JflQ-136" value="" style="rounded=0;whiteSpace=wrap;html=1;dashed=1;strokeWidth=3;fillColor=none;strokeColor=#999999;" vertex="1" parent="1">
          <mxGeometry x="780" y="1185" width="500" height="165" as="geometry" />
        </mxCell>
        <mxCell id="FU4fpQDdCTPNlsp2JflQ-139" value="" style="rounded=0;whiteSpace=wrap;html=1;dashed=1;strokeWidth=3;fillColor=#f8cecc;strokeColor=#b85450;dashPattern=8 8;" vertex="1" parent="1">
          <mxGeometry x="-680" y="1210" width="660" height="270" as="geometry" />
        </mxCell>
        <mxCell id="FU4fpQDdCTPNlsp2JflQ-142" value="" style="rounded=0;whiteSpace=wrap;html=1;dashed=1;strokeWidth=3;fillColor=none;strokeColor=#999999;" vertex="1" parent="1">
          <mxGeometry x="-620" y="1320" width="380" height="120" as="geometry" />
        </mxCell>
        <mxCell id="FU4fpQDdCTPNlsp2JflQ-143" value="&lt;span style=&quot;font-size: 27px;&quot;&gt;&lt;b&gt;Providers&lt;/b&gt;&lt;/span&gt;" style="text;html=1;align=center;verticalAlign=middle;whiteSpace=wrap;rounded=0;" vertex="1" parent="1">
          <mxGeometry x="-610" y="1330" width="130" height="30" as="geometry" />
        </mxCell>
        <mxCell id="FU4fpQDdCTPNlsp2JflQ-144" value="DocumentServiceProvider" style="html=1;whiteSpace=wrap;fillColor=none;" vertex="1" parent="1">
          <mxGeometry x="-480" y="1360" width="200" height="50" as="geometry" />
        </mxCell>
        <mxCell id="FU4fpQDdCTPNlsp2JflQ-145" value="&lt;font style=&quot;font-size: 27px;&quot;&gt;&lt;b style=&quot;&quot;&gt;Infrastrctrue (Document Feature)&lt;/b&gt;&lt;/font&gt;" style="text;html=1;align=center;verticalAlign=middle;whiteSpace=wrap;rounded=0;fillColor=#dae8fc;strokeColor=#6c8ebf;" vertex="1" parent="1">
          <mxGeometry x="-640" y="1240" width="460" height="30" as="geometry" />
        </mxCell>
        <mxCell id="FU4fpQDdCTPNlsp2JflQ-146" value="" style="rounded=0;whiteSpace=wrap;html=1;dashed=1;strokeWidth=3;fillColor=none;strokeColor=default;" vertex="1" parent="1">
          <mxGeometry x="820" y="890" width="317" height="120" as="geometry" />
        </mxCell>
        <mxCell id="FU4fpQDdCTPNlsp2JflQ-147" value="&lt;font style=&quot;font-size: 27px;&quot;&gt;&lt;b style=&quot;&quot;&gt;Application ( Document Feature )&lt;/b&gt;&lt;/font&gt;" style="text;html=1;align=center;verticalAlign=middle;whiteSpace=wrap;rounded=0;fillColor=#dae8fc;strokeColor=#6c8ebf;" vertex="1" parent="1">
          <mxGeometry x="778" y="770" width="452" height="30" as="geometry" />
        </mxCell>
        <mxCell id="FU4fpQDdCTPNlsp2JflQ-148" style="edgeStyle=orthogonalEdgeStyle;rounded=0;orthogonalLoop=1;jettySize=auto;html=1;entryX=0.471;entryY=0.96;entryDx=0;entryDy=0;entryPerimeter=0;exitX=0.5;exitY=0;exitDx=0;exitDy=0;endSize=12;strokeWidth=2;" edge="1" parent="1" source="FU4fpQDdCTPNlsp2JflQ-114" target="FU4fpQDdCTPNlsp2JflQ-105">
          <mxGeometry relative="1" as="geometry" />
        </mxCell>
        <mxCell id="FU4fpQDdCTPNlsp2JflQ-149" value="" style="rounded=0;whiteSpace=wrap;html=1;dashed=1;strokeWidth=3;fillColor=none;strokeColor=#999999;" vertex="1" parent="1">
          <mxGeometry x="720" y="1805" width="430" height="120" as="geometry" />
        </mxCell>
      </root>
    </mxGraphModel>
  </diagram>
</mxfile>
